<!-- Generator: Adobe Illustrator 17.0.0, SVG Export Plug-In  -->
<svg version="1.1"
	 xmlns="http://www.w3.org/2000/svg" xmlns:xlink="http://www.w3.org/1999/xlink" xmlns:a="http://ns.adobe.com/AdobeSVGViewerExtensions/3.0/"
	 x="0px" y="0px" width="358.966px" height="43.204px" viewBox="0 0 358.966 43.204" enable-background="new 0 0 358.966 43.204"
	 xml:space="preserve">
<defs>
</defs>
<g>
	<g>
		<path fill="#231815" d="M158.488,32.422v8.23h-1.062v-8.23H158.488z"/>
		<path fill="#231815" d="M160.429,36.342c0-0.61-0.013-1.112-0.05-1.601h0.953l0.061,0.977h0.024
			c0.293-0.559,0.976-1.108,1.953-1.108c0.817,0,2.088,0.486,2.088,2.513v3.529h-1.075v-3.408c0-0.953-0.354-1.743-1.368-1.743
			c-0.708,0-1.256,0.501-1.44,1.098c-0.049,0.132-0.073,0.316-0.073,0.499v3.553h-1.074V36.342z"/>
		<path fill="#231815" d="M167.058,39.553c0.317,0.209,0.879,0.428,1.417,0.428c0.781,0,1.147-0.391,1.147-0.879
			c0-0.513-0.306-0.792-1.099-1.087c-1.063-0.377-1.563-0.964-1.563-1.672c0-0.952,0.768-1.732,2.039-1.732
			c0.599,0,1.123,0.169,1.453,0.364l-0.269,0.782c-0.232-0.145-0.658-0.343-1.208-0.343c-0.635,0-0.989,0.367-0.989,0.805
			c0,0.491,0.354,0.709,1.122,1.002c1.027,0.39,1.552,0.905,1.552,1.783c0,1.037-0.806,1.768-2.21,1.768
			c-0.647,0-1.245-0.157-1.66-0.4L167.058,39.553z"/>
		<path fill="#231815" d="M173.537,33.059v1.694h1.538v0.819h-1.538v3.187c0,0.734,0.208,1.15,0.805,1.15
			c0.282,0,0.49-0.039,0.624-0.075l0.049,0.806c-0.208,0.086-0.537,0.145-0.953,0.145c-0.502,0-0.903-0.157-1.16-0.451
			c-0.304-0.317-0.415-0.841-0.415-1.539v-3.223h-0.916v-0.819h0.916v-1.413L173.537,33.059z"/>
		<path fill="#231815" d="M177.75,33.094c0.013,0.364-0.255,0.657-0.682,0.657c-0.379,0-0.649-0.293-0.649-0.657
			c0-0.38,0.282-0.672,0.672-0.672C177.495,32.422,177.75,32.714,177.75,33.094z M176.555,40.664v-5.911h1.075v5.911H176.555z"/>
		<path fill="#231815" d="M180.925,33.052v1.694h1.539v0.819h-1.539v3.187c0,0.734,0.207,1.15,0.807,1.15
			c0.279,0,0.487-0.039,0.622-0.075l0.05,0.806c-0.209,0.086-0.537,0.145-0.953,0.145c-0.501,0-0.902-0.157-1.161-0.451
			c-0.304-0.317-0.414-0.841-0.414-1.539v-3.223h-0.916v-0.819h0.916v-1.413L180.925,33.052z"/>
		<path fill="#231815" d="M188.701,39.037c0,0.611,0.013,1.15,0.049,1.613h-0.952l-0.061-0.964h-0.024
			c-0.282,0.475-0.903,1.099-1.954,1.099c-0.926,0-2.038-0.513-2.038-2.589v-3.456h1.074v3.273c0,1.122,0.342,1.882,1.32,1.882
			c0.719,0,1.22-0.503,1.415-0.979c0.062-0.158,0.096-0.354,0.096-0.547v-3.629h1.075V39.037z"/>
		<path fill="#231815" d="M191.91,33.045v1.694h1.537v0.819h-1.537v3.187c0,0.734,0.206,1.15,0.805,1.15
			c0.281,0,0.489-0.039,0.623-0.075l0.049,0.806c-0.209,0.086-0.538,0.145-0.953,0.145c-0.501,0-0.904-0.157-1.159-0.451
			c-0.306-0.317-0.417-0.841-0.417-1.539v-3.223h-0.915v-0.819h0.915v-1.413L191.91,33.045z"/>
		<path fill="#231815" d="M195.364,37.89c0.024,1.452,0.953,2.053,2.028,2.053c0.767,0,1.231-0.135,1.635-0.306l0.182,0.768
			c-0.376,0.173-1.023,0.366-1.964,0.366c-1.819,0-2.905-1.195-2.905-2.977c0-1.782,1.049-3.186,2.771-3.186
			c1.929,0,2.442,1.695,2.442,2.783c0,0.219-0.025,0.39-0.036,0.5H195.364z M198.514,37.121c0.012-0.683-0.281-1.745-1.49-1.745
			c-1.087,0-1.563,1.002-1.649,1.745H198.514z"/>
		<path fill="#231815" d="M209.074,37.648c0,2.186-1.512,3.139-2.942,3.139c-1.6,0-2.832-1.172-2.832-3.041
			c0-1.979,1.295-3.136,2.93-3.136C207.926,34.609,209.074,35.841,209.074,37.648z M204.386,37.708c0,1.296,0.748,2.272,1.795,2.272
			c1.025,0,1.794-0.964,1.794-2.296c0-1.002-0.498-2.271-1.767-2.271C204.938,35.413,204.386,36.586,204.386,37.708z"/>
		<path fill="#231815" d="M210.801,40.652V35.56h-0.83v-0.819h0.83v-0.279c0-0.83,0.183-1.586,0.684-2.064
			c0.402-0.39,0.938-0.55,1.439-0.55c0.379,0,0.71,0.086,0.917,0.172l-0.145,0.83c-0.16-0.074-0.38-0.134-0.686-0.134
			c-0.914,0-1.146,0.805-1.146,1.709v0.315h1.428v0.819h-1.428v5.092H210.801z"/>
		<path fill="#231815" d="M222.884,40.382c-0.391,0.198-1.172,0.39-2.174,0.39c-2.319,0-4.063-1.465-4.063-4.162
			c0-2.576,1.744-4.322,4.295-4.322c1.025,0,1.672,0.22,1.954,0.366l-0.258,0.867c-0.402-0.194-0.976-0.341-1.66-0.341
			c-1.931,0-3.21,1.231-3.21,3.394c0,2.014,1.159,3.308,3.161,3.308c0.647,0,1.307-0.135,1.734-0.341L222.884,40.382z"/>
		<path fill="#231815" d="M224.44,36.525c0-0.695-0.014-1.293-0.049-1.846h0.94l0.036,1.161h0.05
			c0.268-0.793,0.914-1.292,1.636-1.292c0.121,0,0.207,0.01,0.305,0.036v1.013c-0.112-0.025-0.222-0.037-0.367-0.037
			c-0.756,0-1.295,0.574-1.439,1.379c-0.026,0.146-0.052,0.318-0.052,0.502v3.15h-1.06V36.525z"/>
		<path fill="#231815" d="M229.129,37.83c0.025,1.452,0.951,2.053,2.028,2.053c0.768,0,1.232-0.136,1.636-0.306l0.182,0.768
			c-0.379,0.173-1.025,0.365-1.968,0.365c-1.818,0-2.904-1.195-2.904-2.977c0-1.782,1.05-3.186,2.771-3.186
			c1.929,0,2.442,1.695,2.442,2.783c0,0.219-0.024,0.39-0.037,0.5H229.129z M232.279,37.062c0.012-0.683-0.281-1.746-1.489-1.746
			c-1.087,0-1.564,1.002-1.646,1.746H232.279z"/>
		<path fill="#231815" d="M238.058,40.59l-0.086-0.746h-0.037c-0.329,0.466-0.962,0.88-1.806,0.88c-1.198,0-1.806-0.841-1.806-1.697
			c0-1.43,1.27-2.21,3.552-2.198v-0.122c0-0.489-0.132-1.369-1.34-1.369c-0.55,0-1.123,0.172-1.539,0.44l-0.247-0.708
			c0.49-0.318,1.198-0.524,1.942-0.524c1.809,0,2.249,1.232,2.249,2.417v2.21c0,0.511,0.022,1.012,0.096,1.415H238.058z
			 M237.901,37.576c-1.172-0.027-2.503,0.181-2.503,1.328c0,0.696,0.464,1.025,1.012,1.025c0.771,0,1.257-0.487,1.43-0.987
			c0.035-0.11,0.061-0.231,0.061-0.342V37.576z"/>
		<path fill="#231815" d="M241.917,32.985v1.694h1.538v0.819h-1.538v3.187c0,0.734,0.207,1.15,0.806,1.15
			c0.28,0,0.487-0.039,0.622-0.075l0.048,0.806c-0.207,0.086-0.537,0.145-0.952,0.145c-0.499,0-0.902-0.157-1.16-0.451
			c-0.304-0.317-0.416-0.841-0.416-1.539v-3.223h-0.915v-0.819h0.915v-1.413L241.917,32.985z"/>
		<path fill="#231815" d="M246.208,33.021c0.012,0.364-0.256,0.657-0.684,0.657c-0.378,0-0.646-0.293-0.646-0.657
			c0-0.38,0.281-0.672,0.671-0.672C245.953,32.349,246.208,32.641,246.208,33.021z M245.011,40.59v-5.911h1.074v5.911H245.011z"/>
		<path fill="#231815" d="M248.6,34.686l1.161,3.322c0.195,0.537,0.355,1.027,0.474,1.515h0.039c0.135-0.488,0.305-0.977,0.5-1.515
			l1.148-3.322h1.125l-2.323,5.911H249.7l-2.245-5.911H248.6z"/>
		<path fill="#231815" d="M254.737,37.837c0.024,1.452,0.954,2.053,2.027,2.053c0.772,0,1.233-0.136,1.637-0.306l0.182,0.768
			c-0.379,0.173-1.025,0.365-1.968,0.365c-1.816,0-2.904-1.195-2.904-2.977c0-1.782,1.05-3.186,2.772-3.186
			c1.928,0,2.443,1.695,2.443,2.783c0,0.219-0.025,0.39-0.039,0.5H254.737z M257.888,37.069c0.011-0.683-0.281-1.746-1.491-1.746
			c-1.086,0-1.564,1.002-1.646,1.746H257.888z"/>
		<path fill="#231815" d="M263.767,32.422v8.23h-1.062v-8.23H263.767z"/>
		<path fill="#231815" d="M265.736,36.313c0-0.61-0.013-1.112-0.047-1.601h0.951l0.059,0.977h0.025
			c0.294-0.559,0.977-1.108,1.955-1.108c0.815,0,2.088,0.486,2.088,2.513v3.529h-1.077v-3.408c0-0.953-0.354-1.743-1.367-1.743
			c-0.709,0-1.256,0.501-1.44,1.099c-0.05,0.132-0.073,0.316-0.073,0.499v3.553h-1.075V36.313z"/>
		<path fill="#231815" d="M277.72,31.954v7.144c0,0.523,0.014,1.122,0.049,1.525h-0.964l-0.05-1.026h-0.025
			c-0.329,0.659-1.049,1.161-2.013,1.161c-1.428,0-2.528-1.209-2.528-3.004c-0.012-1.965,1.207-3.173,2.649-3.173
			c0.903,0,1.514,0.426,1.782,0.901h0.025v-3.527H277.72z M276.646,37.117c0-0.132-0.011-0.317-0.048-0.45
			c-0.16-0.683-0.745-1.246-1.552-1.246c-1.111,0-1.77,0.978-1.77,2.284c0,1.196,0.585,2.184,1.745,2.184
			c0.72,0,1.38-0.475,1.577-1.282c0.037-0.146,0.048-0.292,0.048-0.464V37.117z"/>
		<path fill="#231815" d="M284.448,39.01c0,0.611,0.011,1.149,0.049,1.613h-0.955l-0.059-0.964h-0.025
			c-0.281,0.475-0.902,1.099-1.952,1.099c-0.929,0-2.039-0.513-2.039-2.59v-3.456h1.074v3.273c0,1.123,0.342,1.882,1.318,1.882
			c0.72,0,1.223-0.503,1.417-0.979c0.062-0.158,0.097-0.354,0.097-0.547v-3.629h1.076V39.01z"/>
		<path fill="#231815" d="M286.085,39.524c0.317,0.209,0.879,0.428,1.414,0.428c0.781,0,1.148-0.391,1.148-0.879
			c0-0.513-0.304-0.792-1.099-1.087c-1.062-0.377-1.562-0.963-1.562-1.672c0-0.952,0.769-1.732,2.041-1.732
			c0.595,0,1.121,0.169,1.45,0.365l-0.268,0.782c-0.234-0.145-0.66-0.343-1.208-0.343c-0.634,0-0.991,0.367-0.991,0.805
			c0,0.491,0.357,0.709,1.125,1.002c1.025,0.39,1.55,0.905,1.55,1.783c0,1.037-0.806,1.768-2.208,1.768
			c-0.65,0-1.246-0.157-1.66-0.4L286.085,39.524z"/>
		<path fill="#231815" d="M292.609,33.018v1.694h1.538v0.819h-1.538v3.187c0,0.734,0.208,1.15,0.805,1.15
			c0.282,0,0.488-0.039,0.622-0.075l0.05,0.806c-0.207,0.086-0.535,0.145-0.954,0.145c-0.497,0-0.902-0.157-1.157-0.451
			c-0.304-0.317-0.416-0.841-0.416-1.539v-3.223h-0.915v-0.819h0.915v-1.413L292.609,33.018z"/>
		<path fill="#231815" d="M295.616,36.557c0-0.695-0.012-1.293-0.049-1.845h0.942l0.035,1.161h0.049
			c0.27-0.793,0.916-1.292,1.637-1.292c0.12,0,0.206,0.011,0.304,0.036v1.013c-0.107-0.025-0.219-0.037-0.365-0.037
			c-0.758,0-1.297,0.574-1.442,1.379c-0.025,0.146-0.046,0.318-0.046,0.502v3.15h-1.065V36.557z"/>
		<path fill="#231815" d="M301.312,33.054c0.014,0.364-0.256,0.657-0.683,0.657c-0.379,0-0.647-0.293-0.647-0.657
			c0-0.38,0.283-0.672,0.672-0.672C301.056,32.382,301.312,32.674,301.312,33.054z M300.118,40.623v-5.911h1.074v5.911H300.118z"/>
		<path fill="#231815" d="M303.784,37.863c0.027,1.452,0.955,2.053,2.027,2.053c0.77,0,1.233-0.136,1.637-0.306l0.182,0.768
			c-0.377,0.173-1.025,0.366-1.967,0.366c-1.816,0-2.902-1.195-2.902-2.977c0-1.782,1.051-3.186,2.77-3.186
			c1.929,0,2.44,1.695,2.44,2.783c0,0.219-0.023,0.39-0.035,0.5H303.784z M306.935,37.094c0.011-0.683-0.28-1.745-1.49-1.745
			c-1.088,0-1.562,1.002-1.649,1.745H306.935z"/>
		<path fill="#231815" d="M309.418,39.524c0.317,0.209,0.878,0.428,1.415,0.428c0.782,0,1.148-0.391,1.148-0.879
			c0-0.513-0.306-0.792-1.099-1.087c-1.061-0.377-1.563-0.963-1.563-1.672c0-0.952,0.771-1.732,2.039-1.732
			c0.599,0,1.125,0.169,1.456,0.365l-0.271,0.782c-0.232-0.145-0.659-0.343-1.209-0.343c-0.634,0-0.988,0.367-0.988,0.805
			c0,0.491,0.354,0.709,1.123,1.002c1.025,0.39,1.55,0.905,1.55,1.783c0,1.037-0.806,1.768-2.21,1.768
			c-0.647,0-1.244-0.157-1.66-0.4L309.418,39.524z"/>
		<path fill="#231815" d="M316.796,32.533c0.645-0.098,1.415-0.171,2.257-0.171c1.528,0,2.613,0.354,3.333,1.026
			c0.735,0.669,1.16,1.622,1.16,2.954c0,1.342-0.414,2.44-1.183,3.199c-0.769,0.769-2.04,1.184-3.639,1.184
			c-0.756,0-1.392-0.035-1.928-0.098V32.533z M317.859,39.809c0.268,0.048,0.658,0.064,1.074,0.064c2.271,0,3.504-1.273,3.504-3.493
			c0.011-1.94-1.088-3.176-3.333-3.176c-0.548,0-0.965,0.051-1.244,0.109V39.809z"/>
		<path fill="#231815" d="M325.677,37.892c0.025,1.452,0.951,2.053,2.026,2.053c0.771,0,1.235-0.136,1.636-0.306l0.183,0.768
			c-0.379,0.173-1.026,0.366-1.964,0.366c-1.82,0-2.906-1.195-2.906-2.977c0-1.782,1.051-3.186,2.773-3.186
			c1.926,0,2.441,1.695,2.441,2.783c0,0.219-0.024,0.39-0.036,0.5H325.677z M328.828,37.123c0.009-0.683-0.282-1.745-1.49-1.745
			c-1.087,0-1.562,1.002-1.649,1.745H328.828z"/>
		<path fill="#231815" d="M331.315,39.553c0.316,0.209,0.878,0.428,1.415,0.428c0.781,0,1.151-0.391,1.151-0.879
			c0-0.513-0.309-0.792-1.099-1.087c-1.065-0.377-1.564-0.964-1.564-1.672c0-0.952,0.77-1.732,2.039-1.732
			c0.597,0,1.122,0.169,1.453,0.364l-0.268,0.782c-0.232-0.145-0.659-0.343-1.21-0.343c-0.633,0-0.987,0.367-0.987,0.805
			c0,0.491,0.355,0.709,1.125,1.002c1.023,0.39,1.549,0.905,1.549,1.783c0,1.037-0.807,1.768-2.211,1.768
			c-0.646,0-1.244-0.157-1.659-0.4L331.315,39.553z"/>
		<path fill="#231815" d="M337.628,33.082c0.013,0.364-0.256,0.657-0.684,0.657c-0.379,0-0.649-0.293-0.649-0.657
			c0-0.38,0.284-0.672,0.674-0.672C337.372,32.41,337.628,32.703,337.628,33.082z M336.433,40.652v-5.911h1.074v5.911H336.433z"/>
		<path fill="#231815" d="M344.494,34.741c-0.024,0.428-0.049,0.905-0.049,1.626v3.43c0,1.356-0.27,2.185-0.842,2.697
			c-0.575,0.539-1.405,0.709-2.148,0.709c-0.71,0-1.491-0.17-1.967-0.487l0.269-0.818c0.391,0.241,1.001,0.462,1.731,0.462
			c1.099,0,1.906-0.574,1.906-2.063v-0.66h-0.025c-0.328,0.55-0.964,0.989-1.881,0.989c-1.463,0-2.514-1.247-2.514-2.881
			c0-2.002,1.307-3.136,2.663-3.136c1.022,0,1.587,0.537,1.841,1.024h0.024l0.051-0.893H344.494z M343.381,37.073
			c0-0.181-0.012-0.342-0.06-0.486c-0.197-0.621-0.72-1.136-1.503-1.136c-1.025,0-1.757,0.868-1.757,2.234
			c0,1.161,0.585,2.125,1.747,2.125c0.658,0,1.257-0.416,1.489-1.1c0.062-0.184,0.084-0.39,0.084-0.574V37.073z"/>
		<path fill="#231815" d="M346.155,36.342c0-0.61-0.015-1.112-0.05-1.601h0.951l0.063,0.977h0.024
			c0.29-0.559,0.976-1.108,1.951-1.108c0.818,0,2.09,0.486,2.09,2.513v3.529h-1.076v-3.408c0-0.953-0.354-1.743-1.368-1.743
			c-0.709,0-1.256,0.501-1.44,1.098c-0.05,0.132-0.072,0.316-0.072,0.499v3.553h-1.074V36.342z"/>
		<path fill="#231815" d="M157.425,27.128v-8.229h1.161l2.637,4.16c0.61,0.966,1.086,1.834,1.477,2.676l0.024-0.013
			c-0.098-1.099-0.12-2.097-0.12-3.382v-3.441h0.999v8.229h-1.074l-2.613-4.177c-0.573-0.916-1.124-1.855-1.539-2.746l-0.036,0.012
			c0.061,1.038,0.087,2.027,0.087,3.395v3.516H157.425z"/>
		<path fill="#231815" d="M168.694,27.128l-0.085-0.745h-0.037c-0.33,0.464-0.964,0.878-1.807,0.878
			c-1.196,0-1.806-0.842-1.806-1.696c0-1.429,1.269-2.209,3.553-2.198v-0.123c0-0.487-0.135-1.367-1.345-1.367
			c-0.548,0-1.122,0.172-1.538,0.439l-0.243-0.708c0.487-0.318,1.196-0.525,1.941-0.525c1.806,0,2.246,1.232,2.246,2.417v2.209
			c0,0.513,0.024,1.015,0.097,1.418H168.694z M168.535,24.112c-1.171-0.026-2.502,0.182-2.502,1.332
			c0,0.695,0.464,1.024,1.013,1.024c0.769,0,1.258-0.489,1.429-0.99c0.037-0.11,0.06-0.23,0.06-0.34V24.112z"/>
		<path fill="#231815" d="M172.627,19.52v1.697h1.537v0.818h-1.537v3.185c0,0.735,0.206,1.15,0.804,1.15
			c0.282,0,0.489-0.038,0.624-0.074l0.047,0.808c-0.208,0.084-0.537,0.144-0.952,0.144c-0.5,0-0.903-0.157-1.16-0.452
			c-0.304-0.317-0.415-0.841-0.415-1.538v-3.223h-0.916v-0.818h0.916V19.8L172.627,19.52z"/>
		<path fill="#231815" d="M176.906,19.557c0.013,0.366-0.255,0.659-0.684,0.659c-0.378,0-0.646-0.293-0.646-0.659
			c0-0.378,0.281-0.671,0.671-0.671C176.651,18.886,176.906,19.179,176.906,19.557z M175.71,27.128v-5.911h1.075v5.911H175.71z"/>
		<path fill="#231815" d="M183.915,24.122c0,2.187-1.514,3.139-2.942,3.139c-1.6,0-2.833-1.172-2.833-3.04
			c0-1.978,1.295-3.138,2.93-3.138C182.767,21.083,183.915,22.316,183.915,24.122z M179.226,24.184c0,1.294,0.745,2.273,1.796,2.273
			c1.025,0,1.794-0.965,1.794-2.298c0-1-0.501-2.271-1.77-2.271C179.776,21.887,179.226,23.059,179.226,24.184z"/>
		<path fill="#231815" d="M185.27,22.818c0-0.611-0.013-1.113-0.05-1.6h0.951l0.063,0.978h0.024
			c0.293-0.562,0.977-1.112,1.953-1.112c0.819,0,2.088,0.489,2.088,2.514v3.53h-1.075V23.72c0-0.949-0.354-1.744-1.367-1.744
			c-0.708,0-1.256,0.499-1.441,1.098c-0.048,0.133-0.072,0.317-0.072,0.5v3.554h-1.075V22.818z"/>
		<path fill="#231815" d="M195.509,27.128l-0.084-0.745h-0.039c-0.329,0.464-0.962,0.878-1.806,0.878
			c-1.196,0-1.805-0.842-1.805-1.696c0-1.429,1.269-2.209,3.552-2.198v-0.123c0-0.487-0.133-1.367-1.343-1.367
			c-0.547,0-1.121,0.172-1.538,0.439l-0.245-0.707c0.489-0.318,1.197-0.525,1.942-0.525c1.805,0,2.246,1.232,2.246,2.417v2.21
			c0,0.513,0.024,1.015,0.098,1.418H195.509z M195.35,24.113c-1.172-0.026-2.502,0.182-2.502,1.332c0,0.695,0.464,1.024,1.012,1.024
			c0.769,0,1.257-0.489,1.428-0.99c0.037-0.11,0.061-0.23,0.061-0.34V24.113z"/>
		<path fill="#231815" d="M198.27,18.46h1.074v8.668h-1.074V18.46z"/>
		<path fill="#231815" d="M208.45,26.858c-0.389,0.196-1.171,0.39-2.172,0.39c-2.321,0-4.066-1.462-4.066-4.164
			c0-2.575,1.746-4.323,4.299-4.323c1.025,0,1.672,0.221,1.954,0.368l-0.258,0.868c-0.401-0.197-0.975-0.343-1.662-0.343
			c-1.928,0-3.211,1.234-3.211,3.395c0,2.015,1.161,3.309,3.163,3.309c0.646,0,1.308-0.136,1.733-0.342L208.45,26.858z"/>
		<path fill="#231815" d="M209.971,18.496h1.072v3.685h0.023c0.173-0.304,0.441-0.572,0.77-0.756
			c0.317-0.182,0.697-0.306,1.099-0.306c0.793,0,2.065,0.489,2.065,2.528v3.516h-1.075V23.77c0-0.954-0.353-1.757-1.368-1.757
			c-0.696,0-1.244,0.485-1.44,1.073c-0.062,0.149-0.073,0.307-0.073,0.513v3.566h-1.072V18.496z"/>
		<path fill="#231815" d="M217.342,24.406c0.024,1.45,0.951,2.05,2.025,2.05c0.769,0,1.234-0.134,1.637-0.307l0.183,0.771
			c-0.378,0.171-1.025,0.365-1.965,0.365c-1.821,0-2.905-1.195-2.905-2.978c0-1.784,1.049-3.187,2.77-3.187
			c1.93,0,2.443,1.696,2.443,2.784c0,0.218-0.026,0.39-0.04,0.502H217.342z M220.492,23.634c0.012-0.684-0.282-1.746-1.49-1.746
			c-1.087,0-1.562,1.002-1.646,1.746H220.492z"/>
		<path fill="#231815" d="M222.86,22.854c0-0.611-0.011-1.113-0.049-1.6h0.952l0.061,0.978h0.025
			c0.294-0.562,0.976-1.112,1.952-1.112c0.821,0,2.089,0.489,2.089,2.514v3.53h-1.073v-3.408c0-0.95-0.355-1.744-1.367-1.744
			c-0.71,0-1.259,0.499-1.442,1.098c-0.048,0.133-0.074,0.317-0.074,0.5v3.554h-1.074V22.854z"/>
		<path fill="#231815" d="M234.726,21.254c-0.022,0.427-0.049,0.904-0.049,1.626v3.43c0,1.356-0.268,2.183-0.842,2.697
			c-0.573,0.537-1.404,0.707-2.149,0.707c-0.708,0-1.49-0.17-1.965-0.486l0.27-0.82c0.388,0.246,1,0.466,1.733,0.466
			c1.1,0,1.905-0.574,1.905-2.064v-0.661h-0.025c-0.328,0.551-0.965,0.992-1.88,0.992c-1.465,0-2.516-1.246-2.516-2.883
			c0-2.003,1.307-3.138,2.662-3.138c1.025,0,1.587,0.538,1.844,1.024h0.023l0.051-0.89H234.726z M233.617,23.587
			c0-0.183-0.012-0.344-0.063-0.492c-0.194-0.62-0.72-1.132-1.5-1.132c-1.026,0-1.759,0.866-1.759,2.232
			c0,1.163,0.587,2.127,1.746,2.127c0.659,0,1.256-0.415,1.492-1.101c0.06-0.182,0.084-0.39,0.084-0.574V23.587z"/>
		<path fill="#231815" d="M238.539,18.899h1.062v3.968h0.038c0.219-0.317,0.438-0.611,0.646-0.88l2.514-3.088h1.32l-2.981,3.49
			l3.214,4.739h-1.258l-2.711-4.043l-0.783,0.903v3.14h-1.062V18.899z"/>
		<path fill="#231815" d="M250.121,25.515c0,0.611,0.013,1.147,0.05,1.612h-0.954l-0.06-0.965h-0.025
			c-0.28,0.477-0.903,1.099-1.952,1.099c-0.928,0-2.039-0.511-2.039-2.59v-3.454h1.074v3.271c0,1.123,0.343,1.882,1.318,1.882
			c0.722,0,1.219-0.5,1.417-0.977c0.06-0.16,0.098-0.353,0.098-0.55v-3.626h1.074V25.515z"/>
		<path fill="#231815" d="M251.906,22.818c0-0.611-0.014-1.113-0.05-1.6h0.952l0.063,0.978h0.024
			c0.292-0.562,0.976-1.112,1.952-1.112c0.82,0,2.087,0.489,2.087,2.514v3.53h-1.074V23.72c0-0.949-0.354-1.744-1.368-1.744
			c-0.708,0-1.257,0.499-1.441,1.098c-0.048,0.133-0.073,0.317-0.073,0.5v3.554h-1.072V22.818z"/>
		<path fill="#231815" d="M263.771,21.217c-0.025,0.427-0.05,0.904-0.05,1.626v3.43c0,1.356-0.268,2.183-0.841,2.697
			c-0.573,0.537-1.405,0.707-2.15,0.707c-0.707,0-1.489-0.17-1.965-0.487l0.268-0.82c0.39,0.246,1.002,0.466,1.735,0.466
			c1.097,0,1.905-0.574,1.905-2.064v-0.661h-0.027c-0.328,0.551-0.962,0.992-1.878,0.992c-1.467,0-2.516-1.246-2.516-2.883
			c0-2.003,1.307-3.138,2.663-3.138c1.025,0,1.587,0.538,1.843,1.024h0.024l0.05-0.89H263.771z M262.661,23.55
			c0-0.184-0.014-0.344-0.062-0.492c-0.193-0.62-0.719-1.132-1.501-1.132c-1.025,0-1.759,0.866-1.759,2.232
			c0,1.163,0.587,2.127,1.745,2.127c0.66,0,1.258-0.415,1.49-1.101c0.061-0.182,0.086-0.39,0.086-0.574V23.55z"/>
		<path fill="#231815" d="M268.736,18.899v4.869c0,1.843,0.82,2.625,1.918,2.625c1.22,0,2.003-0.806,2.003-2.625v-4.869h1.074v4.797
			c0,2.527-1.331,3.565-3.115,3.565c-1.684,0-2.951-0.965-2.951-3.517v-4.846H268.736z"/>
		<path fill="#231815" d="M275.539,22.818c0-0.611-0.015-1.113-0.05-1.6h0.952l0.063,0.978h0.024
			c0.291-0.562,0.976-1.112,1.952-1.112c0.819,0,2.09,0.489,2.09,2.514v3.53h-1.076V23.72c0-0.949-0.355-1.744-1.367-1.744
			c-0.708,0-1.259,0.499-1.441,1.098c-0.051,0.133-0.074,0.317-0.074,0.5v3.554h-1.073V22.818z"/>
		<path fill="#231815" d="M283.51,19.557c0.012,0.366-0.256,0.659-0.684,0.659c-0.378,0-0.646-0.293-0.646-0.659
			c0-0.378,0.281-0.671,0.671-0.671C283.254,18.886,283.51,19.179,283.51,19.557z M282.313,27.128v-5.911h1.074v5.911H282.313z"/>
		<path fill="#231815" d="M285.741,21.217l1.16,3.321c0.195,0.537,0.355,1.026,0.477,1.515h0.037
			c0.134-0.489,0.304-0.978,0.499-1.515l1.149-3.321h1.122l-2.319,5.911h-1.025l-2.248-5.911H285.741z"/>
		<path fill="#231815" d="M291.831,24.369c0.024,1.45,0.954,2.05,2.026,2.05c0.769,0,1.234-0.134,1.635-0.307l0.183,0.771
			c-0.378,0.171-1.025,0.365-1.965,0.365c-1.82,0-2.907-1.195-2.907-2.978c0-1.784,1.051-3.187,2.773-3.187
			c1.928,0,2.441,1.696,2.441,2.784c0,0.218-0.023,0.39-0.037,0.502H291.831z M294.983,23.598c0.011-0.684-0.284-1.746-1.492-1.746
			c-1.086,0-1.563,1.002-1.648,1.746H294.983z"/>
		<path fill="#231815" d="M297.558,23.059c0-0.693-0.012-1.291-0.046-1.842h0.938l0.037,1.16h0.049
			c0.269-0.793,0.916-1.294,1.636-1.294c0.123,0,0.207,0.013,0.305,0.037v1.012c-0.109-0.025-0.22-0.036-0.367-0.036
			c-0.757,0-1.292,0.572-1.441,1.379c-0.023,0.149-0.048,0.318-0.048,0.502v3.151h-1.063V23.059z"/>
		<path fill="#231815" d="M301.546,26.028c0.317,0.207,0.879,0.428,1.414,0.428c0.782,0,1.151-0.392,1.151-0.878
			c0-0.514-0.309-0.795-1.1-1.09c-1.064-0.376-1.564-0.963-1.564-1.671c0-0.953,0.771-1.734,2.038-1.734
			c0.6,0,1.123,0.17,1.452,0.365l-0.268,0.784c-0.23-0.148-0.658-0.345-1.208-0.345c-0.634,0-0.987,0.368-0.987,0.807
			c0,0.49,0.353,0.71,1.123,1.002c1.027,0.39,1.55,0.903,1.55,1.782c0,1.038-0.806,1.771-2.211,1.771
			c-0.645,0-1.243-0.157-1.66-0.402L301.546,26.028z"/>
		<path fill="#231815" d="M307.721,19.557c0.015,0.366-0.255,0.659-0.681,0.659c-0.38,0-0.649-0.293-0.649-0.659
			c0-0.378,0.283-0.671,0.671-0.671C307.466,18.886,307.721,19.179,307.721,19.557z M306.527,27.128v-5.911h1.074v5.911H306.527z"/>
		<path fill="#231815" d="M310.964,19.52v1.697h1.537v0.818h-1.537v3.185c0,0.735,0.208,1.15,0.805,1.15
			c0.282,0,0.49-0.038,0.624-0.074l0.048,0.808c-0.206,0.084-0.537,0.144-0.951,0.144c-0.501,0-0.903-0.157-1.159-0.452
			c-0.306-0.317-0.417-0.841-0.417-1.538v-3.223h-0.915v-0.818h0.915V19.8L310.964,19.52z"/>
		<path fill="#231815" d="M314.533,21.217l1.293,3.493c0.131,0.39,0.281,0.855,0.378,1.208h0.024
			c0.108-0.354,0.232-0.806,0.379-1.234l1.171-3.467h1.137l-1.612,4.214c-0.769,2.026-1.294,3.062-2.028,3.698
			c-0.525,0.462-1.051,0.647-1.317,0.696l-0.268-0.904c0.268-0.083,0.621-0.255,0.938-0.525c0.295-0.232,0.66-0.648,0.903-1.196
			c0.05-0.108,0.087-0.195,0.087-0.257c0-0.059-0.025-0.146-0.075-0.28l-2.184-5.445H314.533z"/>
		<path fill="#231815" d="M169.028,13.59c-0.207,0.247-0.536,0.428-0.986,0.428h-9.088c-0.355,0-0.673-0.162-0.907-0.437
			c-0.204-0.244-0.329-0.576-0.329-0.919V3.434c0-0.356,0.179-0.697,0.482-0.914c0.219-0.17,0.518-0.28,0.873-0.28h8.894
			c0.432,0,0.759,0.169,0.99,0.414c0.238,0.264,0.37,0.619,0.37,0.988v9.113C169.328,13.058,169.234,13.359,169.028,13.59z
			 M168.054,3.585c0-0.178-0.178-0.369-0.331-0.369h-8.356c-0.181,0-0.387,0.14-0.387,0.346v9.125c0,0.233,0.22,0.371,0.387,0.371
			h8.329c0.205,0,0.358-0.138,0.358-0.354V3.585z M166.2,9.654c0.097,0.37,0.288,1.096,0.387,1.439
			c0.05,0.166,0.245,0.263,0.396,0.263h0.714l-0.191,0.946h-0.757c-0.204,0-0.437-0.027-0.64-0.122
			c-0.185-0.083-0.348-0.219-0.456-0.437c-0.096-0.194-0.193-0.539-0.247-0.757c-0.274,0.396-0.864,1.165-1.178,1.524h-1.554
			c0.895-0.896,1.771-2.1,2.349-3.023c-0.234-0.968-0.633-2.661-0.77-3.652h-4.83V4.918h4.651c-0.067-0.331-0.177-0.943-0.221-1.26
			h1.112c0.057,0.301,0.154,0.915,0.234,1.26h0.67c-0.108-0.276-0.272-0.804-0.34-1.084h1.058c0.08,0.288,0.272,0.825,0.383,1.084
			h0.671v0.919h-2.266c0.099,0.611,0.329,1.702,0.469,2.224c0.219-0.35,0.547-1.125,0.701-1.578h1.194
			C167.368,7.375,166.749,8.72,166.2,9.654z M159.447,11.974v-1.058c1.18-0.177,3.293-0.729,4.391-1.058v0.991
			C162.728,11.204,160.603,11.769,159.447,11.974z M163.554,9.324c-0.153,0.208-0.389,0.33-0.731,0.33h-2.143
			c-0.271,0-0.491-0.107-0.655-0.291c-0.151-0.159-0.248-0.395-0.248-0.656V7.375c0-0.234,0.105-0.451,0.287-0.62
			c0.185-0.15,0.428-0.244,0.672-0.244h1.953c0.344,0,0.599,0.111,0.78,0.274c0.191,0.194,0.29,0.452,0.29,0.74v1.046
			C163.759,8.86,163.703,9.132,163.554,9.324z M162.55,7.658c0-0.149-0.111-0.257-0.258-0.257h-1.072
			c-0.154,0-0.292,0.108-0.292,0.278v0.824c0,0.152,0.137,0.275,0.263,0.275h1.123c0.125,0,0.236-0.084,0.236-0.259V7.658z"/>
		<path fill="#231815" d="M171.329,14.13v-0.976h6.547c1.111-2.205,1.702-4.648,2.206-7.045h1.295
			c-0.521,2.415-1.098,4.84-2.1,7.045h4.035v0.976H171.329z M171.906,4.994V4.043h4.844c-0.276-0.615-0.56-1.261-0.782-1.918h1.389
			c0.206,0.603,0.588,1.427,0.919,1.918h4.335v0.952H171.906z M174.763,12.235c-0.605-2.001-1.155-4.043-1.496-6.126h1.289
			c0.358,2.106,0.836,4.164,1.621,6.126H174.763z"/>
		<path fill="#231815" d="M196.78,14.107h-1.136c-0.223,0-0.429-0.062-0.611-0.154c-0.202-0.109-0.369-0.29-0.488-0.507
			c-0.238-0.416-0.512-1.167-0.674-1.684c-0.743,0.86-1.635,1.666-2.531,2.345h-2.137c1.521-0.96,3.073-2.154,4.269-3.644
			c-0.497-1.793-0.829-3.661-1.03-5.471h-4.859c-0.18,0-0.383,0.16-0.383,0.411v1.154h3.209c0.329,0,0.591,0.124,0.785,0.313
			c0.217,0.234,0.337,0.549,0.337,0.882v3.291c0,0.327-0.135,0.619-0.355,0.825c-0.221,0.202-0.516,0.331-0.836,0.331h-1.716
			l-0.468-0.95h1.744c0.221,0,0.413-0.162,0.413-0.347V7.805c0-0.153-0.179-0.316-0.303-0.316h-2.81v1.619
			c0,1.644-0.195,3.612-0.743,4.998h-1.363c0.661-1.427,0.838-2.87,0.838-4.546V5.277c0-0.399,0.172-0.713,0.418-0.919
			c0.245-0.219,0.573-0.341,0.919-0.341h5.075c-0.053-0.581-0.108-1.278-0.121-1.87h1.278c-0.017,0.486,0.039,1.385,0.079,1.87
			h1.485c-0.233-0.387-0.513-0.936-0.662-1.348h1.249c0.208,0.471,0.458,0.946,0.731,1.348h0.837v0.973h-3.541
			c0.096,1.237,0.423,3.103,0.724,4.117c0.551-0.965,1.018-2.02,1.359-3.105h1.292c-0.55,1.608-1.277,3.132-2.265,4.545
			c0.244,0.808,0.522,1.576,0.837,2.276c0.109,0.236,0.368,0.328,0.604,0.328h0.99L196.78,14.107z"/>
		<path fill="#231815" d="M199.219,13.862v-1.099c0.561-0.079,1.632-0.338,2.156-0.491V3.431h-1.98V2.448h5.122v0.983h-1.867v8.454
			c0.496-0.135,1.491-0.461,2.016-0.683v1.07C203.35,12.837,200.66,13.603,199.219,13.862z M210.61,13.769
			c-0.221,0.23-0.537,0.356-0.875,0.356h-2.021l-0.476-0.973h2.168c0.162,0,0.298-0.139,0.298-0.327v-7.06
			c0-0.162-0.112-0.3-0.287-0.3h-2.074v1.422c0,2.793-0.685,5.138-1.961,7.238h-1.483c1.25-2.032,2.2-4.21,2.2-6.781V5.466h-1.678
			V4.495h1.678V2.131h1.244v2.364h2.25c0.372,0,0.732,0.121,0.976,0.351c0.248,0.238,0.409,0.581,0.409,1.018v6.962
			C210.978,13.224,210.843,13.55,210.61,13.769z"/>
		<path fill="#231815" d="M222.729,14.112c-1.753-1.627-3.346-3.866-3.992-5.815c-0.714,2.005-2.335,4.42-4.115,5.815h-1.924
			c3.007-2.261,5.007-5.061,5.275-8.176h-5.083V4.964h5.121c0.067-0.809,0.096-2.045,0.052-2.82h1.28
			c0.028,0.722-0.011,2.136-0.071,2.82h5.269v0.972h-5.349c-0.043,0.399-0.162,1.115-0.247,1.537h0.743
			c0.789,2.584,2.975,5.121,5.033,6.639H222.729z"/>
		<path fill="#231815" d="M232.234,11.587v1.373c0,0.386-0.086,0.7-0.31,0.907c-0.172,0.168-0.459,0.273-0.846,0.273h-1.785
			l-0.342-0.916h1.77c0.136,0,0.235-0.085,0.235-0.246v-1.391h-5.409v-0.878h5.409V10.41c0.464-0.124,1.261-0.429,1.642-0.593
			h-4.811v-0.89h6.662c0.267,0,0.435,0.137,0.484,0.296c0.074,0.201,0.013,0.418-0.189,0.542c-0.519,0.302-1.417,0.697-2.124,0.943
			h4.913v0.878H232.234z M236.118,9.482V8.444c0-0.162-0.101-0.281-0.261-0.281h-8.66c-0.113,0-0.266,0.132-0.266,0.281v1.038
			h-1.216V8.391c0-0.274,0.052-0.479,0.13-0.642c0.111-0.197,0.276-0.318,0.483-0.43V3.519c0-0.195,0.099-0.372,0.221-0.523
			c0.169-0.175,0.382-0.302,0.535-0.326c0.703-0.112,1.907-0.365,2.569-0.553v0.96c-0.495,0.118-1.429,0.301-1.898,0.404
			c-0.123,0.024-0.259,0.146-0.259,0.284v0.262h1.868v0.781h-1.868v0.85h1.868v0.813h-1.868v0.811h8.028V6.471h-1.812V5.658h1.812
			v-0.85h-1.812V4.028h1.84V3.481c0-0.181-0.106-0.309-0.316-0.309h-1.663V2.328h1.991c0.37,0,0.674,0.106,0.862,0.325
			c0.18,0.191,0.279,0.466,0.279,0.839v3.855c0.178,0.072,0.329,0.205,0.428,0.363c0.107,0.169,0.163,0.358,0.163,0.546v1.225
			H236.118z M232.245,6.95c-0.175-0.107-0.508-0.345-0.671-0.468c-0.208,0.165-0.523,0.368-0.717,0.468h-1.481
			c0.41-0.248,1.196-0.753,1.54-1.043c-0.306-0.292-0.814-0.813-1.099-1.14h1.261c0.109,0.151,0.396,0.429,0.536,0.567
			c0.154-0.129,0.44-0.395,0.603-0.567h1.234c-0.285,0.327-0.876,0.904-1.178,1.167c0.357,0.318,1.054,0.792,1.426,1.016H232.245z
			 M232.07,4.481c-0.126-0.09-0.389-0.272-0.512-0.386c-0.148,0.114-0.422,0.295-0.572,0.386h-1.456
			c0.352-0.232,1.043-0.716,1.359-0.976c-0.277-0.247-0.822-0.812-1.101-1.222h1.252c0.149,0.191,0.427,0.494,0.542,0.627
			c0.172-0.15,0.459-0.426,0.654-0.627h1.204c-0.343,0.427-0.862,0.975-1.165,1.234c0.315,0.262,0.961,0.742,1.288,0.963H232.07z"/>
		<path fill="#231815" d="M245.088,5.071c-0.441-0.532-0.789-1.142-1.076-1.659c-0.066-0.137-0.23-0.219-0.367-0.219h-1.652
			c-0.119,0-0.259,0.068-0.326,0.177c-0.29,0.505-0.702,1.143-1.183,1.701h-1.548c0.756-0.684,1.329-1.576,1.8-2.344
			c0.096-0.141,0.243-0.262,0.423-0.343c0.17-0.086,0.355-0.127,0.522-0.127h2.308c0.229,0,0.448,0.084,0.627,0.196
			c0.196,0.133,0.362,0.325,0.471,0.534c0.384,0.723,0.974,1.495,1.538,2.085H245.088z M245.662,9.454
			c-0.231,0.245-0.605,0.369-1.054,0.369h-3.516c-0.045,1.434-0.137,2.989-0.658,4.284h-1.344c0.576-1.226,0.807-2.957,0.807-4.365
			V6.394c0-0.304,0.127-0.607,0.321-0.813c0.176-0.178,0.423-0.305,0.707-0.305h1.511c-0.177-0.45-0.339-0.905-0.479-1.373h1.29
			c0.123,0.468,0.248,0.95,0.466,1.373h1.019c0.371,0,0.665,0.109,0.876,0.315c0.22,0.218,0.34,0.534,0.34,0.937V8.63
			C245.948,8.983,245.843,9.243,245.662,9.454z M244.754,6.459c0-0.152-0.147-0.271-0.3-0.271h-3.045
			c-0.167,0-0.345,0.132-0.345,0.311v0.592h3.69V6.459z M244.754,7.939h-3.69v0.95h3.416c0.139,0,0.275-0.139,0.275-0.276V7.939z
			 M245.827,13.799c-0.196,0.183-0.468,0.309-0.84,0.309h-2.564c-0.288,0-0.564-0.115-0.769-0.321
			c-0.176-0.181-0.287-0.437-0.287-0.743v-1.439c0-0.346,0.166-0.603,0.395-0.762c0.206-0.139,0.454-0.207,0.689-0.207h2.605
			c0.285,0,0.524,0.093,0.701,0.244c0.248,0.206,0.384,0.522,0.384,0.836v1.359C246.141,13.305,246.048,13.593,245.827,13.799z
			 M244.949,11.816c0-0.145-0.135-0.295-0.273-0.295h-1.795c-0.142,0-0.279,0.097-0.279,0.236v1.141
			c0,0.132,0.137,0.256,0.246,0.256h1.828c0.146,0,0.273-0.136,0.273-0.286V11.816z M247.047,11.085V2.933h1.205v8.152H247.047z
			 M250.588,13.799c-0.245,0.225-0.605,0.309-0.932,0.309h-1.799l-0.465-0.954h1.922c0.271,0,0.426-0.174,0.426-0.436V2.148h1.182
			v10.926C250.922,13.402,250.778,13.64,250.588,13.799z"/>
		<path fill="#231815" d="M252.987,5.867V4.949h3.171c-0.131-0.283-0.354-0.825-0.495-1.163h-2.166V2.88h4.646
			c-0.173-0.195-0.42-0.495-0.602-0.742h1.311c0.163,0.232,0.451,0.547,0.653,0.742h4.682v0.906h-2.155
			c-0.138,0.339-0.398,0.907-0.539,1.163h3.203v0.918H252.987z M254.372,13.942h-1.34c0.765-1.098,1.153-1.967,1.427-2.776h1.262
			C255.435,12.018,255.005,13.063,254.372,13.942z M263.894,10.041c-0.231,0.3-0.602,0.471-1.105,0.471h-8.113
			c-0.319,0-0.605-0.138-0.81-0.342c-0.219-0.226-0.344-0.538-0.344-0.871V7.695c0-0.369,0.125-0.689,0.358-0.907
			c0.19-0.191,0.467-0.297,0.795-0.297h8.3c0.316,0,0.605,0.106,0.816,0.283c0.213,0.21,0.352,0.482,0.352,0.788v1.634
			C264.145,9.535,264.067,9.823,263.894,10.041z M262.879,7.686c0-0.159-0.163-0.307-0.349-0.307h-7.442
			c-0.15,0-0.316,0.125-0.316,0.291v0.368h8.107V7.686z M262.879,8.92h-8.107v0.366c0,0.149,0.137,0.315,0.33,0.315h7.37
			c0.223,0,0.407-0.166,0.407-0.365V8.92z M261.811,14.118h-4.527c-0.289,0-0.564-0.121-0.744-0.332
			c-0.171-0.201-0.286-0.517-0.286-0.835v-2.032h1.25v1.937c0,0.182,0.176,0.34,0.327,0.34h4.393L261.811,14.118z M256.955,3.786
			c0.11,0.284,0.37,0.866,0.518,1.163h2.693c0.181-0.298,0.477-0.907,0.589-1.163H256.955z M259.616,12.549
			c-0.455-0.561-0.879-1.243-1.132-1.684h1.44c0.27,0.498,0.819,1.262,1.231,1.684H259.616z M263.368,13.942
			c-0.542-0.784-1.046-1.924-1.357-2.776h1.26c0.298,0.761,0.833,1.955,1.46,2.776H263.368z"/>
		<path fill="#231815" d="M269.066,7.49c-0.118,0-0.337,0.149-0.337,0.332v2.007c-0.023,1.373-0.229,2.706-0.71,3.97h-1.27
			c0.637-1.235,0.763-2.656,0.797-4.124V7.708c0-0.353,0.15-0.609,0.352-0.768c0.267-0.217,0.628-0.299,0.892-0.299h9.219V7.49
			H269.066z M267.344,4.087V3.261h4.422c-0.151-0.236-0.331-0.531-0.441-0.819h1.419c0.161,0.275,0.335,0.571,0.537,0.819h4.157
			v0.826H267.344z M273.913,6.23c-0.517-0.142-1.05-0.3-1.427-0.409c-0.268,0.083-0.903,0.306-1.255,0.409h-3.536
			c1.009-0.226,2.572-0.582,3.521-0.883c-0.713-0.288-1.465-0.593-2.137-0.96h2.175c0.352,0.157,0.844,0.367,1.217,0.521
			c0.445-0.155,0.847-0.314,1.271-0.521h2.077c-0.649,0.348-1.342,0.654-2.024,0.933c1.049,0.338,2.203,0.633,3.371,0.91H273.913z
			 M269.128,13.815V12.93h3.941v-1.158h-3.053v-0.816h3.053v-1.1h-2.098c-0.142,0.283-0.27,0.532-0.467,0.816h-1.376
			c0.689-0.763,1.065-1.655,1.35-2.577h1.22c-0.105,0.301-0.211,0.612-0.316,0.91h1.686V7.808h1.205v1.198h3.309v0.851h-3.309v1.1
			h2.893v0.816h-2.893v1.158h3.789v0.886H269.128z"/>
		<path fill="#231815" d="M281.365,13.932h-2.059c1.415-0.895,2.292-1.846,2.981-2.656h1.604
			C283.204,12.184,282.323,13.147,281.365,13.932z M286.045,10.906v3.24h-1.213v-3.24h-5.208V9.987h5.208V9.029h-4.124V8.081h4.124
			V7.199h-4.855V6.252h3.034c-0.189-0.349-0.398-0.736-0.546-1.093h-2.76V4.227h1.699c-0.246-0.569-0.481-1.185-0.662-1.798h1.307
			c0.142,0.569,0.384,1.242,0.66,1.798h0.81V2.11h1.22v2.117h1.349V2.11h1.219v2.117h0.674c0.315-0.596,0.604-1.201,0.812-1.798
			h1.313c-0.205,0.569-0.562,1.396-0.814,1.798h1.763v0.931h-2.729c-0.159,0.3-0.51,0.819-0.714,1.093h3.206v0.947h-4.772v0.882
			h4.102v0.947h-4.102v0.958h5.244v0.919H286.045z M283.847,5.159c0.135,0.328,0.371,0.768,0.614,1.093h1.691
			c0.261-0.312,0.564-0.719,0.784-1.093H283.847z M289.664,13.932c-0.983-0.779-1.878-1.726-2.592-2.656h1.551
			c0.781,0.868,1.648,1.748,2.951,2.656H289.664z"/>
		<path fill="#231815" d="M293.343,4.453V3.492h1.869c-0.098-0.376-0.276-0.991-0.321-1.374h1.281
			c0.028,0.383,0.218,1.043,0.341,1.374h1.586v0.961H293.343z M297.613,13.838c-0.208,0.196-0.509,0.301-0.883,0.301h-1.984
			c-0.483,0-0.801-0.163-0.974-0.438c-0.167-0.218-0.233-0.531-0.233-0.892v-2.166c0-0.273,0.146-0.6,0.406-0.812
			c0.168-0.135,0.37-0.237,0.618-0.237h2.261c0.319,0,0.58,0.126,0.775,0.337c0.205,0.2,0.331,0.488,0.331,0.801v2.253
			C297.931,13.361,297.816,13.65,297.613,13.838z M293.673,6.441V5.508h4.09v0.933H293.673z M293.673,8.487V7.538h4.09v0.949
			H293.673z M296.72,10.848c0-0.166-0.126-0.288-0.265-0.288h-1.41c-0.163,0-0.287,0.111-0.287,0.288v2.004
			c0,0.175,0.134,0.333,0.287,0.333h1.371c0.178,0,0.305-0.145,0.305-0.303V10.848z M303.388,14.139
			c-0.576-0.438-1.276-1.012-1.757-1.494c-0.535,0.482-1.262,1.101-1.852,1.494h-2.031c1.014-0.626,2.072-1.452,3.022-2.306
			c-0.735-0.847-1.649-1.987-2.077-2.812h1.36c0.402,0.605,0.999,1.389,1.557,1.947c0.579-0.61,1.231-1.494,1.599-2.141
			c0.043-0.091,0.018-0.215-0.091-0.215h-4.765V7.674h5.364c0.358,0,0.619,0.141,0.773,0.358c0.161,0.249,0.175,0.58,0,0.907
			c-0.472,0.853-1.256,2.015-2.033,2.853c0.752,0.739,2.171,1.691,3.119,2.347H303.388z M305.034,7.117h-1.519
			c-0.358,0-0.662-0.138-0.837-0.391c-0.121-0.158-0.193-0.367-0.193-0.615V3.619c0-0.181-0.139-0.319-0.276-0.319h-1.497
			c-0.148,0-0.305,0.124-0.311,0.273c-0.016,1.373-0.154,2.472-0.896,3.597h-1.492c1.057-1.046,1.244-2.675,1.236-3.91
			c0-0.276,0.119-0.494,0.299-0.658c0.189-0.185,0.451-0.273,0.712-0.273h2.267c0.372,0,0.682,0.118,0.902,0.351
			c0.177,0.193,0.288,0.468,0.288,0.84v2.346c0,0.202,0.195,0.332,0.344,0.332h1.347L305.034,7.117z"/>
		<path fill="#231815" d="M307.084,4.522V3.562h2.312c-0.127-0.29-0.402-0.939-0.5-1.43h1.373c0.126,0.399,0.372,1.057,0.566,1.43
			h1.809v0.959H307.084z M307.567,6.562V5.595h4.764v0.967H307.567z M307.567,8.598V7.625h4.764v0.973H307.567z M312.062,13.838
			c-0.208,0.196-0.467,0.301-0.707,0.301h-2.735c-0.199,0-0.446-0.105-0.654-0.283c-0.193-0.197-0.344-0.456-0.344-0.784v-2.445
			c0-0.274,0.152-0.521,0.36-0.695c0.192-0.167,0.424-0.262,0.664-0.262h2.644c0.275,0,0.565,0.122,0.773,0.34
			c0.169,0.189,0.278,0.453,0.278,0.757v2.431C312.34,13.456,312.231,13.672,312.062,13.838z M311.12,10.997
			c0-0.181-0.179-0.326-0.383-0.326h-1.63c-0.12,0-0.286,0.145-0.286,0.283v1.885c0,0.148,0.12,0.324,0.33,0.324h1.642
			c0.149,0,0.328-0.124,0.328-0.324V10.997z M316.407,7.815v6.324h-1.309V7.815h-2.481V6.843h2.481V2.117h1.309v4.726h2.498v0.972
			H316.407z"/>
		<path fill="#231815" d="M323.24,3.585c-0.136,0.809-0.427,2.197-0.704,3.062h1.168c0.29,0,0.563,0.107,0.757,0.302
			c0.159,0.18,0.274,0.408,0.274,0.686v4.692c0,0.303-0.081,0.537-0.222,0.712c-0.207,0.248-0.518,0.376-0.893,0.376h-1.356
			c-0.342,0-0.649-0.139-0.837-0.359c-0.178-0.192-0.276-0.452-0.276-0.77V8.843h-0.653c0.751-1.627,1.264-3.409,1.507-5.257h-1.376
			V2.623h4.474v0.962H323.24z M323.538,7.887c0-0.159-0.108-0.305-0.274-0.305h-0.626c-0.143,0-0.269,0.112-0.269,0.285v4.323
			c0,0.137,0.14,0.278,0.25,0.278h0.688c0.134,0,0.23-0.125,0.23-0.278V7.887z M331.199,8.104v5.953h-1.263V8.104h-2.18
			c-0.059,2.453-0.293,3.922-1.581,5.953h-1.459c1.284-1.671,1.844-3.744,1.777-5.953h-1.363V7.117h1.341V3.173h-0.986V2.198h6.645
			v0.974h-0.932v3.944h1.218v0.987H331.199z M329.936,3.173h-2.194v3.944h2.194V3.173z"/>
		<path fill="#231815" d="M345.531,14.082h-0.877c-0.413,0-0.727-0.066-0.957-0.219c-0.276-0.192-0.413-0.52-0.413-1.055V9.386
			c0-0.173-0.131-0.295-0.318-0.295h-3.485c-0.179,2.55-1.303,3.895-3.104,4.99h-2.453c2.018-0.727,4.281-2.617,4.296-4.978
			l-3.734-0.013V8.144h3.775V6.772h1.277v1.371h3.637c0.462,0,0.825,0.11,1.055,0.352c0.222,0.218,0.329,0.567,0.329,1.032v3.293
			c0,0.235,0.112,0.343,0.302,0.343h1.029L345.531,14.082z M344.396,5.834V4.558c0-0.15-0.127-0.311-0.307-0.311h-2.398v1.616
			c0,0.205,0.152,0.318,0.301,0.318h2.894L344.482,7.1h-2.695c-0.482,0-0.836-0.085-1.046-0.29
			c-0.204-0.208-0.296-0.522-0.296-0.987V4.247h-1.652c-0.136,1.236-0.587,2.097-1.768,2.881h-2.343
			c1.425-0.562,2.853-1.552,2.823-2.881h-1.909c-0.206,0-0.338,0.145-0.338,0.342v1.304h-1.256V4.724
			c0-0.494,0.124-0.861,0.374-1.094c0.238-0.237,0.588-0.347,1.044-0.347h3.949c-0.108-0.259-0.341-0.821-0.462-1.107h1.347
			c0.09,0.268,0.295,0.766,0.504,1.107h3.539c0.465,0,0.807,0.11,1.028,0.358c0.222,0.243,0.334,0.606,0.334,1.109v1.084H344.396z"
			/>
		<path fill="#231815" d="M349.206,3.81c-0.15,0.016-0.232,0.153-0.232,0.287v1.336h2.525c0.302,0,0.578,0.094,0.749,0.271
			c0.184,0.166,0.275,0.4,0.275,0.677v2.714c0,0.247-0.119,0.468-0.296,0.619c-0.193,0.182-0.456,0.273-0.672,0.273h-2.581
			c-0.038,1.471-0.21,2.869-0.604,4.174h-1.318c0.409-1.029,0.698-2.729,0.698-4.255V3.909c0-0.299,0.155-0.594,0.372-0.797
			c0.181-0.148,0.401-0.248,0.632-0.261c1.247-0.096,2.689-0.375,3.937-0.658V3.28C351.523,3.509,350.259,3.717,349.206,3.81z
			 M351.334,6.725c0-0.167-0.121-0.304-0.29-0.304h-2.07v2.583h2.087c0.182,0,0.274-0.098,0.274-0.282V6.725z M357.63,7.562v6.599
			h-1.207V7.562h-1.947v1.456c0,1.6-0.135,3.785-0.962,5.143H352.2c0.919-1.554,1.084-2.979,1.084-5.054V3.963
			c0-0.246,0.084-0.481,0.221-0.674c0.178-0.245,0.475-0.424,0.836-0.465c1.441-0.165,2.894-0.389,4.31-0.729v1.099
			c-1.276,0.276-2.594,0.492-3.954,0.647c-0.139,0.014-0.22,0.134-0.22,0.247v2.509h4.49v0.965H357.63z"/>
	</g>
	<g>
		<linearGradient id="SVGID_1_" gradientUnits="userSpaceOnUse" x1="0" y1="22.8463" x2="36.9705" y2="22.8463">
			<stop  offset="0.1809" style="stop-color:#00AEA7"/>
			<stop  offset="0.2366" style="stop-color:#04ADA5"/>
			<stop  offset="0.2961" style="stop-color:#11ACA0"/>
			<stop  offset="0.3574" style="stop-color:#27A997"/>
			<stop  offset="0.42" style="stop-color:#45A48A"/>
			<stop  offset="0.4836" style="stop-color:#6B9F7A"/>
			<stop  offset="0.548" style="stop-color:#9A9867"/>
			<stop  offset="0.6118" style="stop-color:#D19150"/>
			<stop  offset="0.645" style="stop-color:#F18C43"/>
			<stop  offset="0.6907" style="stop-color:#D37E48"/>
			<stop  offset="0.9875" style="stop-color:#12246E"/>
		</linearGradient>
		<path fill="url(#SVGID_1_)" d="M31.972,11.42C18.026,17.736,4.068,19.156,0.268,31.119c-2.467,7.771,12.683-0.049,20.919-4.834
			c7.731-4.487,6.853-4.412,14.419-9.189C38.697,14.468,36.128,10.505,31.972,11.42z"/>
		<linearGradient id="SVGID_2_" gradientUnits="userSpaceOnUse" x1="69.5271" y1="20.5289" x2="111.4211" y2="20.5289">
			<stop  offset="0.1809" style="stop-color:#00AEA7"/>
			<stop  offset="0.2366" style="stop-color:#04ADA5"/>
			<stop  offset="0.2961" style="stop-color:#11ACA0"/>
			<stop  offset="0.3574" style="stop-color:#27A997"/>
			<stop  offset="0.42" style="stop-color:#45A48A"/>
			<stop  offset="0.4836" style="stop-color:#6B9F7A"/>
			<stop  offset="0.548" style="stop-color:#9A9867"/>
			<stop  offset="0.6118" style="stop-color:#D19150"/>
			<stop  offset="0.645" style="stop-color:#F18C43"/>
			<stop  offset="0.6907" style="stop-color:#D37E48"/>
			<stop  offset="0.9875" style="stop-color:#12246E"/>
		</linearGradient>
		<path fill="url(#SVGID_2_)" d="M106.566,0.44C87.633,11.302,57.313,48.669,74.734,39.673
			c14.871-7.676,20.684-16.482,21.907-17.642c7.588-9.445,9.032-10.141,14.453-18.084C112.444,1.981,109.356-1.163,106.566,0.44z"/>
		<linearGradient id="SVGID_3_" gradientUnits="userSpaceOnUse" x1="43.1645" y1="22.68" x2="65.8383" y2="22.68">
			<stop  offset="0.1809" style="stop-color:#00AEA7"/>
			<stop  offset="0.2366" style="stop-color:#04ADA5"/>
			<stop  offset="0.2961" style="stop-color:#11ACA0"/>
			<stop  offset="0.3574" style="stop-color:#27A997"/>
			<stop  offset="0.42" style="stop-color:#45A48A"/>
			<stop  offset="0.4836" style="stop-color:#6B9F7A"/>
			<stop  offset="0.548" style="stop-color:#9A9867"/>
			<stop  offset="0.6118" style="stop-color:#D19150"/>
			<stop  offset="0.645" style="stop-color:#F18C43"/>
			<stop  offset="0.6907" style="stop-color:#D37E48"/>
			<stop  offset="0.9875" style="stop-color:#12246E"/>
		</linearGradient>
		<path fill="url(#SVGID_3_)" d="M59.403,5.353c-9.918,5.412-17.895,9.449-15.942,19.927c1.339,7.171,7.716,11.326,13.154,15.844
			c2.211,0.4,3.896-0.411,4.825-0.99c5.716-3.56-8.375-9.032-7.261-18.207c0.929-7.712,13.805-12.767,11.348-16.762
			C64.8,3.6,62.124,3.927,59.403,5.353z"/>
		<linearGradient id="SVGID_4_" gradientUnits="userSpaceOnUse" x1="113.9661" y1="24.196" x2="144.6776" y2="24.196">
			<stop  offset="0.1809" style="stop-color:#00AEA7"/>
			<stop  offset="0.2366" style="stop-color:#04ADA5"/>
			<stop  offset="0.2961" style="stop-color:#11ACA0"/>
			<stop  offset="0.3574" style="stop-color:#27A997"/>
			<stop  offset="0.42" style="stop-color:#45A48A"/>
			<stop  offset="0.4836" style="stop-color:#6B9F7A"/>
			<stop  offset="0.548" style="stop-color:#9A9867"/>
			<stop  offset="0.6118" style="stop-color:#D19150"/>
			<stop  offset="0.645" style="stop-color:#F18C43"/>
			<stop  offset="0.6907" style="stop-color:#D37E48"/>
			<stop  offset="0.9875" style="stop-color:#12246E"/>
		</linearGradient>
		<path fill="url(#SVGID_4_)" d="M141.659,13.612c-5.173-9.424-17.577-6.059-27.675-2.552c-0.682,16.022,18.107,29.85,18.107,29.85
			s2.153-1.219,2.907-1.656C149.008,31.098,144.509,18.805,141.659,13.612z M131.972,28.691c0,0-8.233-7.675-7.574-10.811
			c3.777-1.329,8.615-2.716,10.375,0.91C136.751,22.864,131.972,28.691,131.972,28.691z"/>
	</g>
</g>
</svg>
